<!-- <svg xmlns="http://www.w3.org/2000/svg" fill="none" class="icon icon-hamburger" viewBox="0 0 18 16"><path fill="currentColor" d="M1 .5a.5.5 0 1 0 0 1h15.71a.5.5 0 0 0 0-1zM.5 8a.5.5 0 0 1 .5-.5h15.71a.5.5 0 0 1 0 1H1A.5.5 0 0 1 .5 8m0 7a.5.5 0 0 1 .5-.5h15.71a.5.5 0 0 1 0 1H1a.5.5 0 0 1-.5-.5"/></svg> -->

<svg xmlns="http://www.w3.org/2000/svg" class="icon icon-hamburger" width="48" height="34" viewBox="0 0 48 34" fill="none">
  <rect width="48" height="7" rx="1" fill="#D1D84D" style="fill:#D1D84D;fill:color(display-p3 0.8196 0.8471 0.3020);fill-opacity:1;"/>
  <rect y="13" width="48" height="8" rx="1" fill="#D1D84D" style="fill:#D1D84D;fill:color(display-p3 0.8196 0.8471 0.3020);fill-opacity:1;"/>
  <rect y="27" width="48" height="7" rx="1" fill="#D1D84D" style="fill:#D1D84D;fill:color(display-p3 0.8196 0.8471 0.3020);fill-opacity:1;"/>
</svg>
