<?xml version="1.0" encoding="UTF-8"?><svg id="Layer_1" xmlns="http://www.w3.org/2000/svg" viewBox="0 0 21.83 28.47"><path fill="#D1D84D" d="m10.91,17.03c-3.37,0-6.11-2.74-6.11-6.11s2.74-6.11,6.11-6.11,6.11,2.74,6.11,6.11-2.74,6.11-6.11,6.11Zm0-10.51c-2.42,0-4.4,1.97-4.4,4.4s1.97,4.4,4.4,4.4,4.4-1.97,4.4-4.4-1.97-4.4-4.4-4.4Z"/><path fill="#D1D84D" d="m10.91,28.47L1.61,16.62c-1.05-1.71-1.61-3.69-1.61-5.71C0,4.9,4.9,0,10.91,0s10.91,4.9,10.91,10.91c0,2.02-.56,3.99-1.61,5.7l-.06.09c-.11.14-8.57,10.91-8.57,10.91l-.68.86ZM3.05,15.68l7.87,10.01c5.28-6.72,7.07-9.14,7.84-9.97h0c.89-1.44,1.35-3.1,1.35-4.81,0-5.07-4.12-9.19-9.2-9.19S1.72,5.84,1.72,10.91c0,1.68.46,3.33,1.33,4.76Z"/></svg>